<mxfile host="app.diagrams.net" modified="2023-02-17T04:03:54.366Z" agent="5.0 (Windows NT 10.0; Win64; x64) AppleWebKit/537.36 (KHTML, like Gecko) Chrome/109.0.0.0 Safari/537.36" etag="2h_VugQsgEZGaOKt5AJ3" version="20.8.18" type="github">
  <diagram name="第 1 页" id="1rt4f0LD6UZNG4BEPDjP">
    <mxGraphModel dx="1434" dy="756" grid="1" gridSize="10" guides="1" tooltips="1" connect="1" arrows="1" fold="1" page="1" pageScale="1" pageWidth="999900" pageHeight="899900" math="0" shadow="0">
      <root>
        <mxCell id="0" />
        <mxCell id="1" parent="0" />
        <mxCell id="FQCICUsSdJGumek2EddL-12" style="edgeStyle=orthogonalEdgeStyle;rounded=0;orthogonalLoop=1;jettySize=auto;html=1;exitX=1;exitY=0.75;exitDx=0;exitDy=0;entryX=0;entryY=0.5;entryDx=0;entryDy=0;entryPerimeter=0;fontSize=18;" edge="1" parent="1" source="FQCICUsSdJGumek2EddL-2" target="FQCICUsSdJGumek2EddL-11">
          <mxGeometry relative="1" as="geometry" />
        </mxCell>
        <mxCell id="FQCICUsSdJGumek2EddL-2" value="&lt;font style=&quot;font-size: 18px;&quot;&gt;新建商品&lt;/font&gt;" style="rounded=1;whiteSpace=wrap;html=1;" vertex="1" parent="1">
          <mxGeometry x="390" y="135" width="160" height="290" as="geometry" />
        </mxCell>
        <mxCell id="FQCICUsSdJGumek2EddL-6" value="单个新建&lt;br&gt;（隐藏）" style="rounded=1;whiteSpace=wrap;html=1;fontSize=18;" vertex="1" parent="1">
          <mxGeometry x="410" y="170" width="120" height="60" as="geometry" />
        </mxCell>
        <mxCell id="FQCICUsSdJGumek2EddL-7" value="批量新建&lt;br&gt;（隐藏）" style="rounded=1;whiteSpace=wrap;html=1;fontSize=18;" vertex="1" parent="1">
          <mxGeometry x="410" y="250" width="120" height="60" as="geometry" />
        </mxCell>
        <mxCell id="FQCICUsSdJGumek2EddL-8" value="批量导入" style="rounded=1;whiteSpace=wrap;html=1;fontSize=18;" vertex="1" parent="1">
          <mxGeometry x="410" y="330" width="120" height="60" as="geometry" />
        </mxCell>
        <mxCell id="FQCICUsSdJGumek2EddL-10" style="edgeStyle=orthogonalEdgeStyle;rounded=0;orthogonalLoop=1;jettySize=auto;html=1;entryX=1;entryY=0.224;entryDx=0;entryDy=0;entryPerimeter=0;fontSize=18;" edge="1" parent="1" source="FQCICUsSdJGumek2EddL-9" target="FQCICUsSdJGumek2EddL-2">
          <mxGeometry relative="1" as="geometry" />
        </mxCell>
        <mxCell id="FQCICUsSdJGumek2EddL-9" value="STO" style="shape=cylinder3;whiteSpace=wrap;html=1;boundedLbl=1;backgroundOutline=1;size=15;fontSize=18;" vertex="1" parent="1">
          <mxGeometry x="640" y="160" width="60" height="80" as="geometry" />
        </mxCell>
        <mxCell id="FQCICUsSdJGumek2EddL-31" style="edgeStyle=orthogonalEdgeStyle;rounded=0;orthogonalLoop=1;jettySize=auto;html=1;entryX=0;entryY=0.5;entryDx=0;entryDy=0;fontSize=18;" edge="1" parent="1" source="FQCICUsSdJGumek2EddL-11" target="FQCICUsSdJGumek2EddL-30">
          <mxGeometry relative="1" as="geometry" />
        </mxCell>
        <mxCell id="FQCICUsSdJGumek2EddL-11" value="商品池" style="shape=cylinder3;whiteSpace=wrap;html=1;boundedLbl=1;backgroundOutline=1;size=15;fontSize=18;" vertex="1" parent="1">
          <mxGeometry x="635" y="310" width="70" height="86" as="geometry" />
        </mxCell>
        <mxCell id="FQCICUsSdJGumek2EddL-13" value="&lt;font style=&quot;font-size: 18px;&quot;&gt;编辑商品&lt;/font&gt;" style="rounded=1;whiteSpace=wrap;html=1;" vertex="1" parent="1">
          <mxGeometry x="390" y="450" width="160" height="290" as="geometry" />
        </mxCell>
        <mxCell id="FQCICUsSdJGumek2EddL-17" style="edgeStyle=orthogonalEdgeStyle;rounded=0;orthogonalLoop=1;jettySize=auto;html=1;entryX=0.5;entryY=1;entryDx=0;entryDy=0;entryPerimeter=0;fontSize=18;" edge="1" parent="1" source="FQCICUsSdJGumek2EddL-14" target="FQCICUsSdJGumek2EddL-11">
          <mxGeometry relative="1" as="geometry" />
        </mxCell>
        <mxCell id="FQCICUsSdJGumek2EddL-14" value="更新期望价格" style="rounded=1;whiteSpace=wrap;html=1;fontSize=18;" vertex="1" parent="1">
          <mxGeometry x="410" y="480" width="120" height="60" as="geometry" />
        </mxCell>
        <mxCell id="FQCICUsSdJGumek2EddL-22" style="edgeStyle=orthogonalEdgeStyle;rounded=0;orthogonalLoop=1;jettySize=auto;html=1;fontSize=18;" edge="1" parent="1" source="FQCICUsSdJGumek2EddL-15" target="FQCICUsSdJGumek2EddL-20">
          <mxGeometry relative="1" as="geometry" />
        </mxCell>
        <mxCell id="FQCICUsSdJGumek2EddL-23" style="edgeStyle=orthogonalEdgeStyle;rounded=0;orthogonalLoop=1;jettySize=auto;html=1;fontSize=18;" edge="1" parent="1" source="FQCICUsSdJGumek2EddL-15" target="FQCICUsSdJGumek2EddL-21">
          <mxGeometry relative="1" as="geometry" />
        </mxCell>
        <mxCell id="FQCICUsSdJGumek2EddL-15" value="更新供应商" style="rounded=1;whiteSpace=wrap;html=1;fontSize=18;" vertex="1" parent="1">
          <mxGeometry x="410" y="565" width="120" height="60" as="geometry" />
        </mxCell>
        <mxCell id="FQCICUsSdJGumek2EddL-26" style="edgeStyle=orthogonalEdgeStyle;rounded=0;orthogonalLoop=1;jettySize=auto;html=1;entryX=0.5;entryY=1;entryDx=0;entryDy=0;entryPerimeter=0;fontSize=18;" edge="1" parent="1" source="FQCICUsSdJGumek2EddL-16" target="FQCICUsSdJGumek2EddL-18">
          <mxGeometry relative="1" as="geometry" />
        </mxCell>
        <mxCell id="FQCICUsSdJGumek2EddL-16" value="更新库存/价格" style="rounded=1;whiteSpace=wrap;html=1;fontSize=18;" vertex="1" parent="1">
          <mxGeometry x="410" y="650" width="120" height="60" as="geometry" />
        </mxCell>
        <mxCell id="FQCICUsSdJGumek2EddL-38" style="edgeStyle=orthogonalEdgeStyle;rounded=0;orthogonalLoop=1;jettySize=auto;html=1;fontSize=18;" edge="1" parent="1" source="FQCICUsSdJGumek2EddL-18" target="FQCICUsSdJGumek2EddL-37">
          <mxGeometry relative="1" as="geometry" />
        </mxCell>
        <mxCell id="FQCICUsSdJGumek2EddL-18" value="供货池" style="shape=cylinder3;whiteSpace=wrap;html=1;boundedLbl=1;backgroundOutline=1;size=15;fontSize=18;" vertex="1" parent="1">
          <mxGeometry x="1200" y="304" width="70" height="83" as="geometry" />
        </mxCell>
        <mxCell id="FQCICUsSdJGumek2EddL-24" style="edgeStyle=orthogonalEdgeStyle;rounded=0;orthogonalLoop=1;jettySize=auto;html=1;entryX=0.5;entryY=1;entryDx=0;entryDy=0;entryPerimeter=0;fontSize=18;" edge="1" parent="1" source="FQCICUsSdJGumek2EddL-20" target="FQCICUsSdJGumek2EddL-18">
          <mxGeometry relative="1" as="geometry" />
        </mxCell>
        <mxCell id="FQCICUsSdJGumek2EddL-28" style="edgeStyle=orthogonalEdgeStyle;rounded=0;orthogonalLoop=1;jettySize=auto;html=1;entryX=0.5;entryY=1;entryDx=0;entryDy=0;entryPerimeter=0;fontSize=18;" edge="1" parent="1" source="FQCICUsSdJGumek2EddL-20" target="FQCICUsSdJGumek2EddL-27">
          <mxGeometry relative="1" as="geometry" />
        </mxCell>
        <mxCell id="FQCICUsSdJGumek2EddL-20" value="解绑" style="rounded=1;whiteSpace=wrap;html=1;fontSize=18;" vertex="1" parent="1">
          <mxGeometry x="750" y="530" width="120" height="60" as="geometry" />
        </mxCell>
        <mxCell id="FQCICUsSdJGumek2EddL-25" style="edgeStyle=orthogonalEdgeStyle;rounded=0;orthogonalLoop=1;jettySize=auto;html=1;entryX=0.5;entryY=1;entryDx=0;entryDy=0;entryPerimeter=0;fontSize=18;" edge="1" parent="1" source="FQCICUsSdJGumek2EddL-21" target="FQCICUsSdJGumek2EddL-18">
          <mxGeometry relative="1" as="geometry" />
        </mxCell>
        <mxCell id="FQCICUsSdJGumek2EddL-29" style="edgeStyle=orthogonalEdgeStyle;rounded=0;orthogonalLoop=1;jettySize=auto;html=1;entryX=0.5;entryY=1;entryDx=0;entryDy=0;entryPerimeter=0;fontSize=18;" edge="1" parent="1" source="FQCICUsSdJGumek2EddL-21" target="FQCICUsSdJGumek2EddL-27">
          <mxGeometry relative="1" as="geometry" />
        </mxCell>
        <mxCell id="FQCICUsSdJGumek2EddL-21" value="换绑" style="rounded=1;whiteSpace=wrap;html=1;fontSize=18;" vertex="1" parent="1">
          <mxGeometry x="750" y="600" width="120" height="60" as="geometry" />
        </mxCell>
        <mxCell id="FQCICUsSdJGumek2EddL-27" value="OFFER" style="shape=cylinder3;whiteSpace=wrap;html=1;boundedLbl=1;backgroundOutline=1;size=15;fontSize=18;" vertex="1" parent="1">
          <mxGeometry x="930" y="410" width="60" height="80" as="geometry" />
        </mxCell>
        <mxCell id="FQCICUsSdJGumek2EddL-33" style="edgeStyle=orthogonalEdgeStyle;rounded=0;orthogonalLoop=1;jettySize=auto;html=1;entryX=0;entryY=0.5;entryDx=0;entryDy=0;fontSize=18;" edge="1" parent="1" source="FQCICUsSdJGumek2EddL-30" target="FQCICUsSdJGumek2EddL-32">
          <mxGeometry relative="1" as="geometry" />
        </mxCell>
        <mxCell id="FQCICUsSdJGumek2EddL-30" value="认领" style="rounded=1;whiteSpace=wrap;html=1;fontSize=18;" vertex="1" parent="1">
          <mxGeometry x="790" y="323" width="120" height="60" as="geometry" />
        </mxCell>
        <mxCell id="FQCICUsSdJGumek2EddL-34" style="edgeStyle=orthogonalEdgeStyle;rounded=0;orthogonalLoop=1;jettySize=auto;html=1;entryX=0;entryY=0.593;entryDx=0;entryDy=0;entryPerimeter=0;fontSize=18;" edge="1" parent="1" source="FQCICUsSdJGumek2EddL-32" target="FQCICUsSdJGumek2EddL-18">
          <mxGeometry relative="1" as="geometry" />
        </mxCell>
        <mxCell id="FQCICUsSdJGumek2EddL-35" style="edgeStyle=orthogonalEdgeStyle;rounded=0;orthogonalLoop=1;jettySize=auto;html=1;entryX=1;entryY=0.5;entryDx=0;entryDy=0;entryPerimeter=0;fontSize=18;" edge="1" parent="1" source="FQCICUsSdJGumek2EddL-32" target="FQCICUsSdJGumek2EddL-27">
          <mxGeometry relative="1" as="geometry">
            <Array as="points">
              <mxPoint x="1070" y="450" />
            </Array>
          </mxGeometry>
        </mxCell>
        <mxCell id="FQCICUsSdJGumek2EddL-32" value="审核" style="rounded=1;whiteSpace=wrap;html=1;fontSize=18;" vertex="1" parent="1">
          <mxGeometry x="1010" y="323" width="120" height="60" as="geometry" />
        </mxCell>
        <mxCell id="FQCICUsSdJGumek2EddL-46" style="edgeStyle=orthogonalEdgeStyle;rounded=0;orthogonalLoop=1;jettySize=auto;html=1;entryX=0;entryY=0.5;entryDx=0;entryDy=0;fontSize=18;" edge="1" parent="1" source="FQCICUsSdJGumek2EddL-36" target="FQCICUsSdJGumek2EddL-42">
          <mxGeometry relative="1" as="geometry" />
        </mxCell>
        <mxCell id="FQCICUsSdJGumek2EddL-36" value="订单" style="shape=cylinder3;whiteSpace=wrap;html=1;boundedLbl=1;backgroundOutline=1;size=15;fontSize=18;" vertex="1" parent="1">
          <mxGeometry x="1580" y="303" width="60" height="84" as="geometry" />
        </mxCell>
        <mxCell id="FQCICUsSdJGumek2EddL-39" style="edgeStyle=orthogonalEdgeStyle;rounded=0;orthogonalLoop=1;jettySize=auto;html=1;fontSize=18;" edge="1" parent="1" source="FQCICUsSdJGumek2EddL-37" target="FQCICUsSdJGumek2EddL-36">
          <mxGeometry relative="1" as="geometry" />
        </mxCell>
        <mxCell id="FQCICUsSdJGumek2EddL-37" value="下单" style="rounded=1;whiteSpace=wrap;html=1;fontSize=18;" vertex="1" parent="1">
          <mxGeometry x="1360" y="315.5" width="120" height="60" as="geometry" />
        </mxCell>
        <mxCell id="FQCICUsSdJGumek2EddL-61" style="edgeStyle=orthogonalEdgeStyle;rounded=0;orthogonalLoop=1;jettySize=auto;html=1;entryX=0.5;entryY=1;entryDx=0;entryDy=0;entryPerimeter=0;fontSize=18;" edge="1" parent="1" source="FQCICUsSdJGumek2EddL-40" target="FQCICUsSdJGumek2EddL-36">
          <mxGeometry relative="1" as="geometry" />
        </mxCell>
        <mxCell id="FQCICUsSdJGumek2EddL-40" value="订单详情" style="shape=cylinder3;whiteSpace=wrap;html=1;boundedLbl=1;backgroundOutline=1;size=15;fontSize=18;" vertex="1" parent="1">
          <mxGeometry x="1580" y="481" width="60" height="84" as="geometry" />
        </mxCell>
        <mxCell id="FQCICUsSdJGumek2EddL-48" style="edgeStyle=orthogonalEdgeStyle;rounded=0;orthogonalLoop=1;jettySize=auto;html=1;fontSize=18;entryX=0.5;entryY=0;entryDx=0;entryDy=0;entryPerimeter=0;" edge="1" parent="1" source="FQCICUsSdJGumek2EddL-42" target="FQCICUsSdJGumek2EddL-47">
          <mxGeometry relative="1" as="geometry">
            <mxPoint x="1790" y="420" as="targetPoint" />
          </mxGeometry>
        </mxCell>
        <mxCell id="FQCICUsSdJGumek2EddL-58" style="edgeStyle=orthogonalEdgeStyle;rounded=0;orthogonalLoop=1;jettySize=auto;html=1;entryX=0;entryY=0.5;entryDx=0;entryDy=0;fontSize=18;" edge="1" parent="1" source="FQCICUsSdJGumek2EddL-42" target="FQCICUsSdJGumek2EddL-53">
          <mxGeometry relative="1" as="geometry" />
        </mxCell>
        <mxCell id="FQCICUsSdJGumek2EddL-42" value="发货" style="rounded=1;whiteSpace=wrap;html=1;fontSize=18;" vertex="1" parent="1">
          <mxGeometry x="1730" y="315" width="120" height="60" as="geometry" />
        </mxCell>
        <mxCell id="FQCICUsSdJGumek2EddL-52" style="edgeStyle=orthogonalEdgeStyle;rounded=0;orthogonalLoop=1;jettySize=auto;html=1;entryX=0;entryY=0.5;entryDx=0;entryDy=0;entryPerimeter=0;fontSize=18;" edge="1" parent="1" source="FQCICUsSdJGumek2EddL-47" target="FQCICUsSdJGumek2EddL-51">
          <mxGeometry relative="1" as="geometry" />
        </mxCell>
        <mxCell id="FQCICUsSdJGumek2EddL-47" value="发货" style="shape=cylinder3;whiteSpace=wrap;html=1;boundedLbl=1;backgroundOutline=1;size=15;fontSize=18;" vertex="1" parent="1">
          <mxGeometry x="1760" y="420" width="60" height="84" as="geometry" />
        </mxCell>
        <mxCell id="FQCICUsSdJGumek2EddL-60" style="edgeStyle=orthogonalEdgeStyle;rounded=0;orthogonalLoop=1;jettySize=auto;html=1;entryX=0.5;entryY=1;entryDx=0;entryDy=0;entryPerimeter=0;fontSize=18;" edge="1" parent="1" source="FQCICUsSdJGumek2EddL-49" target="FQCICUsSdJGumek2EddL-47">
          <mxGeometry relative="1" as="geometry" />
        </mxCell>
        <mxCell id="FQCICUsSdJGumek2EddL-62" style="edgeStyle=orthogonalEdgeStyle;rounded=0;orthogonalLoop=1;jettySize=auto;html=1;entryX=1;entryY=0.5;entryDx=0;entryDy=0;entryPerimeter=0;fontSize=18;" edge="1" parent="1" source="FQCICUsSdJGumek2EddL-49" target="FQCICUsSdJGumek2EddL-40">
          <mxGeometry relative="1" as="geometry" />
        </mxCell>
        <mxCell id="FQCICUsSdJGumek2EddL-49" value="发货详情" style="shape=cylinder3;whiteSpace=wrap;html=1;boundedLbl=1;backgroundOutline=1;size=15;fontSize=18;" vertex="1" parent="1">
          <mxGeometry x="1760" y="566" width="60" height="84" as="geometry" />
        </mxCell>
        <mxCell id="FQCICUsSdJGumek2EddL-57" style="edgeStyle=orthogonalEdgeStyle;rounded=0;orthogonalLoop=1;jettySize=auto;html=1;entryX=0.5;entryY=0;entryDx=0;entryDy=0;entryPerimeter=0;fontSize=18;" edge="1" parent="1" source="FQCICUsSdJGumek2EddL-51" target="FQCICUsSdJGumek2EddL-56">
          <mxGeometry relative="1" as="geometry" />
        </mxCell>
        <mxCell id="FQCICUsSdJGumek2EddL-51" value="包裹" style="shape=cylinder3;whiteSpace=wrap;html=1;boundedLbl=1;backgroundOutline=1;size=15;fontSize=18;" vertex="1" parent="1">
          <mxGeometry x="1960" y="420" width="60" height="84" as="geometry" />
        </mxCell>
        <mxCell id="FQCICUsSdJGumek2EddL-55" style="edgeStyle=orthogonalEdgeStyle;rounded=0;orthogonalLoop=1;jettySize=auto;html=1;entryX=0.5;entryY=0;entryDx=0;entryDy=0;entryPerimeter=0;fontSize=18;" edge="1" parent="1" source="FQCICUsSdJGumek2EddL-53" target="FQCICUsSdJGumek2EddL-51">
          <mxGeometry relative="1" as="geometry" />
        </mxCell>
        <mxCell id="FQCICUsSdJGumek2EddL-53" value="申通下单" style="rounded=1;whiteSpace=wrap;html=1;fontSize=18;" vertex="1" parent="1">
          <mxGeometry x="1930" y="315.5" width="120" height="60" as="geometry" />
        </mxCell>
        <mxCell id="FQCICUsSdJGumek2EddL-56" value="包裹轨迹" style="shape=cylinder3;whiteSpace=wrap;html=1;boundedLbl=1;backgroundOutline=1;size=15;fontSize=18;" vertex="1" parent="1">
          <mxGeometry x="1960" y="600" width="60" height="84" as="geometry" />
        </mxCell>
      </root>
    </mxGraphModel>
  </diagram>
</mxfile>
